<svg width="109" height="16" viewBox="0 0 109 16" fill="none" xmlns="http://www.w3.org/2000/svg">
<path d="M12.1 3.22H7.56V15H4.82V3.22H0.28V0.799999H12.1V3.22ZM23.3428 15H20.6628V9.12C20.6628 8.30667 20.5028 7.7 20.1828 7.3C19.8761 6.9 19.4495 6.7 18.9028 6.7C18.5828 6.7 18.2428 6.79333 17.8828 6.98C17.5228 7.16667 17.1961 7.42667 16.9028 7.76C16.6228 8.08 16.4161 8.45333 16.2828 8.88V15H13.6028V0.4H16.2828V6.46C16.6695 5.79333 17.1961 5.27333 17.8628 4.9C18.5295 4.52667 19.2561 4.34 20.0428 4.34C20.7228 4.34 21.2761 4.46 21.7028 4.7C22.1295 4.92667 22.4628 5.24 22.7028 5.64C22.9428 6.02667 23.1095 6.46667 23.2028 6.96C23.2961 7.44 23.3428 7.94 23.3428 8.46V15ZM30.5331 15.2C29.6931 15.2 28.9331 15.06 28.2531 14.78C27.5731 14.4867 26.9931 14.0933 26.5131 13.6C26.0331 13.0933 25.6598 12.52 25.3931 11.88C25.1398 11.2267 25.0131 10.54 25.0131 9.82C25.0131 8.82 25.2331 7.90667 25.6731 7.08C26.1265 6.25333 26.7665 5.59333 27.5931 5.1C28.4331 4.59333 29.4198 4.34 30.5531 4.34C31.6998 4.34 32.6798 4.59333 33.4931 5.1C34.3065 5.59333 34.9265 6.25333 35.3531 7.08C35.7931 7.89333 36.0131 8.77333 36.0131 9.72C36.0131 9.88 36.0065 10.0467 35.9931 10.22C35.9798 10.38 35.9665 10.5133 35.9531 10.62H27.8531C27.9065 11.1533 28.0598 11.62 28.3131 12.02C28.5798 12.42 28.9131 12.7267 29.3131 12.94C29.7265 13.14 30.1665 13.24 30.6331 13.24C31.1665 13.24 31.6665 13.1133 32.1331 12.86C32.6131 12.5933 32.9398 12.2467 33.1131 11.82L35.4131 12.46C35.1598 12.9933 34.7931 13.4667 34.3131 13.88C33.8465 14.2933 33.2931 14.62 32.6531 14.86C32.0131 15.0867 31.3065 15.2 30.5331 15.2ZM27.7931 8.92H33.2731C33.2198 8.38667 33.0665 7.92667 32.8131 7.54C32.5731 7.14 32.2531 6.83333 31.8531 6.62C31.4531 6.39333 31.0065 6.28 30.5131 6.28C30.0331 6.28 29.5931 6.39333 29.1931 6.62C28.8065 6.83333 28.4865 7.14 28.2331 7.54C27.9931 7.92667 27.8465 8.38667 27.7931 8.92ZM37.0458 7.8C37.0458 6.93333 37.1991 6.08667 37.5058 5.26C37.8258 4.42 38.2858 3.66 38.8858 2.98C39.4858 2.28667 40.2191 1.74 41.0858 1.34C41.9524 0.926666 42.9391 0.719999 44.0458 0.719999C45.3524 0.719999 46.4791 1.00667 47.4258 1.58C48.3858 2.15333 49.0991 2.9 49.5658 3.82L47.4458 5.28C47.2058 4.74667 46.8924 4.32667 46.5058 4.02C46.1191 3.7 45.7058 3.48 45.2658 3.36C44.8258 3.22667 44.3924 3.16 43.9658 3.16C43.2724 3.16 42.6658 3.3 42.1458 3.58C41.6391 3.86 41.2124 4.22667 40.8658 4.68C40.5191 5.13333 40.2591 5.64 40.0858 6.2C39.9258 6.76 39.8458 7.32 39.8458 7.88C39.8458 8.50667 39.9458 9.11333 40.1458 9.7C40.3458 10.2733 40.6258 10.7867 40.9858 11.24C41.3591 11.68 41.7991 12.0333 42.3058 12.3C42.8258 12.5533 43.3924 12.68 44.0058 12.68C44.4458 12.68 44.8924 12.6067 45.3458 12.46C45.7991 12.3133 46.2191 12.08 46.6058 11.76C46.9924 11.44 47.2924 11.0267 47.5058 10.52L49.7658 11.82C49.4858 12.5267 49.0258 13.1267 48.3858 13.62C47.7591 14.1133 47.0524 14.4867 46.2658 14.74C45.4791 14.9933 44.6991 15.12 43.9258 15.12C42.9124 15.12 41.9858 14.9133 41.1458 14.5C40.3058 14.0733 39.5791 13.5133 38.9658 12.82C38.3658 12.1133 37.8924 11.3267 37.5458 10.46C37.2124 9.58 37.0458 8.69333 37.0458 7.8ZM57.5967 6.84C56.7834 6.84 56.0567 7 55.4167 7.32C54.7767 7.62667 54.3167 8.07333 54.0367 8.66V15H51.3567V4.52H53.8167V6.76C54.1901 6.04 54.6634 5.47333 55.2367 5.06C55.8101 4.64667 56.4167 4.42 57.0567 4.38C57.2034 4.38 57.3167 4.38 57.3967 4.38C57.4767 4.38 57.5434 4.38667 57.5967 4.4V6.84ZM63.8144 15.2C62.9744 15.2 62.2144 15.06 61.5344 14.78C60.8544 14.4867 60.2744 14.0933 59.7944 13.6C59.3144 13.0933 58.941 12.52 58.6744 11.88C58.421 11.2267 58.2944 10.54 58.2944 9.82C58.2944 8.82 58.5144 7.90667 58.9544 7.08C59.4077 6.25333 60.0477 5.59333 60.8744 5.1C61.7144 4.59333 62.701 4.34 63.8344 4.34C64.981 4.34 65.961 4.59333 66.7744 5.1C67.5877 5.59333 68.2077 6.25333 68.6344 7.08C69.0744 7.89333 69.2944 8.77333 69.2944 9.72C69.2944 9.88 69.2877 10.0467 69.2744 10.22C69.261 10.38 69.2477 10.5133 69.2344 10.62H61.1344C61.1877 11.1533 61.341 11.62 61.5944 12.02C61.861 12.42 62.1944 12.7267 62.5944 12.94C63.0077 13.14 63.4477 13.24 63.9144 13.24C64.4477 13.24 64.9477 13.1133 65.4144 12.86C65.8944 12.5933 66.221 12.2467 66.3944 11.82L68.6944 12.46C68.441 12.9933 68.0744 13.4667 67.5944 13.88C67.1277 14.2933 66.5744 14.62 65.9344 14.86C65.2944 15.0867 64.5877 15.2 63.8144 15.2ZM61.0744 8.92H66.5544C66.501 8.38667 66.3477 7.92667 66.0944 7.54C65.8544 7.14 65.5344 6.83333 65.1344 6.62C64.7344 6.39333 64.2877 6.28 63.7944 6.28C63.3144 6.28 62.8744 6.39333 62.4744 6.62C62.0877 6.83333 61.7677 7.14 61.5144 7.54C61.2744 7.92667 61.1277 8.38667 61.0744 8.92ZM70.207 11.9C70.207 11.22 70.3937 10.6267 70.767 10.12C71.1537 9.6 71.687 9.2 72.367 8.92C73.047 8.64 73.827 8.5 74.707 8.5C75.147 8.5 75.5937 8.53333 76.047 8.6C76.5004 8.66667 76.8937 8.77333 77.227 8.92V8.36C77.227 7.69333 77.027 7.18 76.627 6.82C76.2404 6.46 75.6604 6.28 74.887 6.28C74.3137 6.28 73.767 6.38 73.247 6.58C72.727 6.78 72.1804 7.07333 71.607 7.46L70.747 5.7C71.4404 5.24667 72.147 4.90667 72.867 4.68C73.6004 4.45333 74.367 4.34 75.167 4.34C76.6604 4.34 77.8204 4.71333 78.647 5.46C79.487 6.20667 79.907 7.27333 79.907 8.66V12C79.907 12.28 79.9537 12.48 80.047 12.6C80.1537 12.72 80.3204 12.7933 80.547 12.82V15C80.307 15.04 80.087 15.0733 79.887 15.1C79.7004 15.1267 79.5404 15.14 79.407 15.14C78.8737 15.14 78.467 15.02 78.187 14.78C77.9204 14.54 77.7537 14.2467 77.687 13.9L77.627 13.36C77.1737 13.9467 76.607 14.4 75.927 14.72C75.247 15.04 74.5537 15.2 73.847 15.2C73.1537 15.2 72.527 15.06 71.967 14.78C71.4204 14.4867 70.987 14.0933 70.667 13.6C70.3604 13.0933 70.207 12.5267 70.207 11.9ZM76.727 12.44C76.8737 12.28 76.9937 12.12 77.087 11.96C77.1804 11.8 77.227 11.6533 77.227 11.52V10.46C76.907 10.3267 76.5604 10.2267 76.187 10.16C75.8137 10.08 75.4604 10.04 75.127 10.04C74.4337 10.04 73.8604 10.1933 73.407 10.5C72.967 10.7933 72.747 11.1867 72.747 11.68C72.747 11.9467 72.8204 12.2 72.967 12.44C73.1137 12.68 73.327 12.8733 73.607 13.02C73.887 13.1667 74.2204 13.24 74.607 13.24C75.007 13.24 75.4004 13.1667 75.787 13.02C76.1737 12.86 76.487 12.6667 76.727 12.44ZM88.5938 14.46C88.3671 14.5533 88.0938 14.66 87.7738 14.78C87.4538 14.9 87.1071 14.9933 86.7338 15.06C86.3738 15.14 86.0071 15.18 85.6338 15.18C85.1404 15.18 84.6871 15.0933 84.2738 14.92C83.8604 14.7467 83.5271 14.4733 83.2738 14.1C83.0338 13.7133 82.9138 13.2133 82.9138 12.6V6.58H81.5338V4.52H82.9138V1.12H85.5938V4.52H87.7938V6.58H85.5938V11.7C85.6071 12.06 85.7071 12.32 85.8938 12.48C86.0804 12.64 86.3138 12.72 86.5938 12.72C86.8738 12.72 87.1471 12.6733 87.4138 12.58C87.6804 12.4867 87.8938 12.4067 88.0538 12.34L88.5938 14.46ZM94.7123 15.2C93.859 15.2 93.0923 15.06 92.4123 14.78C91.7323 14.4867 91.1523 14.0867 90.6723 13.58C90.2057 13.0733 89.8457 12.4933 89.5923 11.84C89.339 11.1867 89.2123 10.5 89.2123 9.78C89.2123 9.04667 89.339 8.35333 89.5923 7.7C89.8457 7.04667 90.2057 6.46667 90.6723 5.96C91.1523 5.45333 91.7323 5.06 92.4123 4.78C93.0923 4.48667 93.859 4.34 94.7123 4.34C95.5657 4.34 96.3257 4.48667 96.9923 4.78C97.6723 5.06 98.2523 5.45333 98.7323 5.96C99.2123 6.46667 99.5723 7.04667 99.8123 7.7C100.066 8.35333 100.192 9.04667 100.192 9.78C100.192 10.5 100.066 11.1867 99.8123 11.84C99.5723 12.4933 99.2123 13.0733 98.7323 13.58C98.2657 14.0867 97.6923 14.4867 97.0123 14.78C96.3323 15.06 95.5657 15.2 94.7123 15.2ZM91.9723 9.78C91.9723 10.3933 92.0923 10.94 92.3323 11.42C92.5723 11.8867 92.899 12.2533 93.3123 12.52C93.7257 12.7867 94.1923 12.92 94.7123 12.92C95.219 12.92 95.679 12.7867 96.0923 12.52C96.5057 12.24 96.8323 11.8667 97.0723 11.4C97.3257 10.92 97.4523 10.3733 97.4523 9.76C97.4523 9.16 97.3257 8.62 97.0723 8.14C96.8323 7.66 96.5057 7.28667 96.0923 7.02C95.679 6.75333 95.219 6.62 94.7123 6.62C94.1923 6.62 93.7257 6.76 93.3123 7.04C92.899 7.30667 92.5723 7.68 92.3323 8.16C92.0923 8.62667 91.9723 9.16667 91.9723 9.78ZM108.241 6.84C107.428 6.84 106.701 7 106.061 7.32C105.421 7.62667 104.961 8.07333 104.681 8.66V15H102.001V4.52H104.461V6.76C104.835 6.04 105.308 5.47333 105.881 5.06C106.455 4.64667 107.061 4.42 107.701 4.38C107.848 4.38 107.961 4.38 108.041 4.38C108.121 4.38 108.188 4.38667 108.241 4.4V6.84Z" fill="black"/>
</svg>
